<svg width="150" height="48" viewBox="0 0 150 48" fill="none" xmlns="http://www.w3.org/2000/svg">
<path fill-rule="evenodd" clip-rule="evenodd" d="M52 4H59.7468C61.4084 4 62.6419 4.41713 63.4958 5.1326C64.4164 5.91934 64.8882 6.98066 64.8882 8.29806C64.8882 9.94019 64.0574 10.9804 62.6419 11.5348V11.6034C64.3933 12.1579 65.5164 13.6838 65.5164 15.6481C65.5164 17.3113 64.9318 18.5152 63.8779 19.3468C62.9342 20.1098 61.611 20.5269 59.9263 20.5269H52V4ZM59.1621 10.5421C60.3083 10.5421 61.093 9.96396 61.093 8.87888C61.093 7.83869 60.3519 7.23675 59.1852 7.23675H55.9285V10.5421H59.1621ZM59.4749 17.2453C60.7776 17.2453 61.5854 16.4823 61.5854 15.3049C61.5854 13.9874 60.6417 13.3169 59.4314 13.3169H55.9285V17.2453H59.4749ZM67.0191 4H70.6784V7.05194H67.0191V4ZM67.0191 8.69143H70.6784V20.5269H67.0191V8.69143ZM73.3965 17.4064V11.049H71.8708V8.69143H73.3965V4.94779H76.9661V8.69143H79.0534V11.049H76.9661V16.5959C76.9661 17.5199 77.461 17.7522 78.2457 17.7522C78.436 17.7522 78.8413 17.7436 79.1626 17.7367L79.1627 17.7367C79.3736 17.7322 79.5483 17.7284 79.6022 17.7284V20.4794C79.2868 20.5718 78.0456 20.6642 77.0584 20.6642C74.9223 20.6642 73.3965 19.9488 73.3965 17.4064ZM82.5229 7.46643H78.3995V4H90.6646V7.46643H86.4976V20.5269H82.5229V7.46643ZM88.208 14.6316C88.208 11.0728 90.6774 8.3667 94.3597 8.3667C98.0652 8.3667 100.488 11.0702 100.488 14.6316C100.488 18.1931 98.0626 20.8966 94.3597 20.8966C90.6774 20.8966 88.208 18.1931 88.208 14.6316ZM96.783 14.6316C96.783 12.4826 95.9291 11.0253 94.3367 11.0253C92.7417 11.0253 91.9108 12.4826 91.9108 14.6316C91.9108 16.7807 92.7417 18.2142 94.3367 18.2142C95.9317 18.2142 96.783 16.7833 96.783 14.6316ZM101.781 8.69143H105.284V10.5395H105.35C106.158 9.12969 107.179 8.54623 108.22 8.50663C108.556 8.49343 108.781 8.53039 108.938 8.59903V11.8358H108.848C106.912 11.5665 105.44 12.6436 105.44 15.2098V20.5269H101.781V8.69143ZM110.033 8.69143H113.536V10.5395H113.602C114.41 9.12969 115.431 8.54623 116.472 8.50663C116.808 8.49343 117.033 8.53039 117.19 8.59903V11.8358H117.1C115.164 11.5665 113.692 12.6436 113.692 15.2098V20.5269H110.033V8.69143ZM117.305 14.5867C117.305 11.049 119.708 8.34558 123.211 8.34558C124.849 8.34558 126.152 8.9 127.139 9.82403C128.509 11.1177 129.183 13.1769 129.16 15.5794H120.898C121.123 17.174 121.975 18.1693 123.48 18.1693C124.444 18.1693 125.075 17.7311 125.388 16.9892H128.957C128.711 18.0532 128.037 19.0696 127.026 19.7851C126.062 20.4794 124.893 20.8728 123.434 20.8728C119.639 20.8728 117.305 18.1693 117.305 14.5867ZM125.454 13.338C125.321 11.9282 124.467 11.0279 123.277 11.0279C121.885 11.0279 121.167 11.9282 120.921 13.338H125.454ZM130.419 8.69143H133.945V10.3098H134.012C134.865 9.03728 135.966 8.34558 137.558 8.34558C140.074 8.34558 141.553 10.1936 141.553 12.8311V20.5269H137.894V13.5914C137.894 12.3427 137.289 11.4873 136.099 11.4873C134.886 11.4873 134.078 12.5275 134.078 13.9848V20.5269H130.419V8.69143ZM143.794 17.4064V11.049H142.269V8.69143H143.794V4.94779H147.364V8.69143H149.451V11.049H147.364V16.5959C147.364 17.5199 147.859 17.7522 148.643 17.7522C148.834 17.7522 149.239 17.7436 149.56 17.7367L149.561 17.7367C149.771 17.7322 149.946 17.7284 150 17.7284V20.4794C149.685 20.5718 148.443 20.6642 147.456 20.6642C145.32 20.6642 143.794 19.9488 143.794 17.4064ZM97.0477 37.7082C97.0477 40.444 94.7976 41.9753 91.6185 41.9753C87.4692 41.9753 85.4874 39.6886 85.3223 36.7486H87.1389C87.3866 39.219 88.9142 40.5052 91.7011 40.5052C93.7448 40.5052 95.2105 39.5865 95.2105 37.7694C95.2105 35.7686 93.4351 35.299 90.7928 34.7273C88.1917 34.1557 85.9622 33.4207 85.9622 30.6644C85.9622 28.2552 87.9853 26.8057 90.9786 26.8057C94.6737 26.8057 96.2014 28.6636 96.5729 31.3586H94.8182C94.5499 29.2761 93.1874 28.2348 91.0199 28.2348C89.0174 28.2348 87.6963 29.0719 87.6963 30.5827C87.6963 32.2365 89.3477 32.7265 91.5566 33.1552C94.426 33.7269 97.0477 34.4211 97.0477 37.7082ZM52 41.6894H53.8579V34.809H60.6496V33.2573H53.8579V28.7044H62.0121V27.0915H52V41.6894ZM63.6868 41.6894H65.3589V31.134H63.6868V41.6894ZM63.6868 29.1332H65.3589V27.0915H63.6868V29.1332ZM69.3721 41.6894H67.7V27.0915H69.3721V41.6894ZM76.2725 41.9753C78.6878 41.9753 80.3599 40.689 80.8554 38.4227H79.2245C78.853 39.8519 77.8208 40.5869 76.2725 40.5869C74.1256 40.5869 72.9489 38.9536 72.8251 36.8098H81.0824C81.0824 33.3186 79.369 30.8686 76.1693 30.8686C73.1347 30.8686 71.1117 33.3594 71.1117 36.4219C71.1117 39.4844 73.0109 41.9753 76.2725 41.9753ZM76.1693 32.1752C78.0891 32.1752 79.1832 33.4615 79.2865 35.5644H72.8664C73.1141 33.6452 74.1875 32.1752 76.1693 32.1752ZM100.288 45.1807C101.589 45.1807 102.415 44.7315 103.282 42.5469L107.844 31.134H106.068L103.633 37.7082C103.302 38.5861 102.931 39.7702 102.931 39.7702H102.889C102.889 39.7702 102.497 38.5861 102.167 37.7082L99.6483 31.134H97.8317L102.002 41.3832L101.589 42.4244C101.176 43.4453 100.701 43.7107 99.9993 43.7107C99.4419 43.7107 99.091 43.6086 98.8639 43.4861H98.7813V44.9561C99.2355 45.1398 99.6483 45.1807 100.288 45.1807ZM117.182 38.7902C117.182 40.9136 115.428 41.9957 112.971 41.9957C110.04 41.9957 108.409 40.6277 108.244 38.2594H109.957C110.184 40.0969 111.423 40.6073 113.012 40.6073C114.767 40.6073 115.49 39.8519 115.49 38.8719C115.49 37.6877 114.664 37.3815 112.703 36.9732C110.597 36.5444 108.719 36.1157 108.719 33.8086C108.719 32.0527 110.081 30.9094 112.558 30.9094C115.201 30.9094 116.501 32.1548 116.749 34.2169H115.035C114.87 32.8286 114.107 32.2161 112.517 32.2161C110.989 32.2161 110.37 32.8898 110.37 33.7269C110.37 34.8702 111.402 35.0948 113.239 35.4623C115.386 35.8911 117.182 36.3607 117.182 38.7902ZM117.9 32.4815H119.448V39.709C119.448 41.1994 120.439 41.7507 121.802 41.7507C122.297 41.7507 122.751 41.6894 123.144 41.6077V40.1786H123.082C122.896 40.2398 122.524 40.3215 122.194 40.3215C121.513 40.3215 121.121 40.0765 121.121 39.3415V32.4815H123.185V31.134H121.121V27.8061H119.448V31.134H117.9V32.4815ZM133.956 38.4227C133.46 40.689 131.788 41.9753 129.373 41.9753C126.111 41.9753 124.212 39.4844 124.212 36.4219C124.212 33.3594 126.235 30.8686 129.27 30.8686C132.47 30.8686 134.183 33.3186 134.183 36.8098H125.926C126.049 38.9536 127.226 40.5869 129.373 40.5869C130.921 40.5869 131.953 39.8519 132.325 38.4227H133.956ZM132.387 35.5644C132.284 33.4615 131.19 32.1752 129.27 32.1752C127.288 32.1752 126.215 33.6452 125.967 35.5644H132.387ZM135.818 41.6894H137.49V35.1152C137.49 33.4615 138.935 32.2773 140.236 32.2773C141.33 32.2773 142.073 33.0532 142.073 34.3598V41.6894H143.745V35.1152C143.745 33.4615 144.984 32.2773 146.367 32.2773C147.44 32.2773 148.328 33.0532 148.328 34.3598V41.6894H150V34.2782C150 32.0936 148.658 30.889 146.759 30.889C145.458 30.889 144.179 31.5627 143.497 32.7673H143.456C143.002 31.5423 141.97 30.889 140.669 30.889C139.327 30.889 138.192 31.624 137.531 32.6448H137.49V31.134H135.818V41.6894Z" fill="#1A1A1A"/>
<path fill-rule="evenodd" clip-rule="evenodd" d="M23.0207 36.1567V25.1698L32.5104 19.6763L37.9585 16.5224V23.6456C37.9585 23.8016 38.1269 23.8991 38.2617 23.8211L38.7306 23.5496L41.4948 21.9495C41.8074 21.7685 42 21.4341 42 21.0721V14.1828V13.0131C42 12.2892 41.6148 11.6203 40.9896 11.2584L39.9793 10.6735L34.0348 7.23229C33.7222 7.05133 33.337 7.05133 33.0244 7.23229L29.7913 9.10394C29.6566 9.18193 29.6566 9.37689 29.7913 9.45488L35.9378 13.0131L30.4896 16.167L21 21.6604L11.5104 16.167L6.26036 13.1278L6.06218 13.0131L12.2179 9.44955C12.3526 9.3716 12.3527 9.17677 12.2181 9.0987L8.9889 7.22548C8.67617 7.04407 8.29064 7.0439 7.97775 7.22503L2.02073 10.6735L1.01036 11.2584C0.385148 11.6203 0 12.2892 0 13.0131V14.1828V21.0635C0 21.4254 0.192574 21.7599 0.505181 21.9408L3.28428 23.5496L3.73834 23.8125C3.87306 23.8905 4.04145 23.793 4.04145 23.637V16.5224L4.23964 16.6371L9.48964 19.6763L18.9793 25.1698V36.1567L18.9793 42.4645L12.8239 38.9012C12.6892 38.8232 12.5208 38.9207 12.5208 39.0767V40.1009V42.82C12.5208 43.1819 12.7133 43.5164 13.0259 43.6973L18.9793 47.1437L19.9896 47.7285C20.6149 48.0905 21.3851 48.0905 22.0104 47.7285L23.0207 47.1437L28.9741 43.6973C29.2867 43.5164 29.4792 43.1819 29.4792 42.82V40.1009V39.0767C29.4792 38.9207 29.3108 38.8232 29.1761 38.9012L23.0207 42.4645L23.0207 36.1567ZM34.0259 36.0937C33.7133 36.2747 33.5207 36.6091 33.5207 36.9711V40.1009V40.7144C33.5207 40.8704 33.6891 40.9678 33.8238 40.8899L40.9896 36.7416C41.6148 36.3797 42 35.7108 42 34.9869V26.6871C42 26.5311 41.8316 26.4336 41.6969 26.5116L40.7514 27.059L38.4637 28.3833C38.1511 28.5642 37.9585 28.8987 37.9585 29.2606V33.8172L34.0259 36.0937ZM8.4793 40.7144C8.4793 40.8704 8.31091 40.9678 8.1762 40.8898L1.01036 36.7416C0.385148 36.3797 0 35.7108 0 34.9869V26.6784C0 26.5225 0.168394 26.425 0.303109 26.503L1.26356 27.059L3.53627 28.3746C3.84888 28.5556 4.04145 28.89 4.04145 29.2519V33.8172L7.9741 36.0937C8.2867 36.2747 8.47928 36.6091 8.47928 36.9711L8.4793 40.1009V40.7144ZM12.828 4.41725C12.6933 4.49524 12.6933 4.6902 12.828 4.76819L14.9593 6.00198L16.0612 6.63983C16.3738 6.8208 16.7589 6.8208 17.0715 6.63983L21 4.36568L24.9415 6.6474C25.2541 6.82837 25.6393 6.82837 25.9519 6.6474L27.0668 6.00198L29.1851 4.77575C29.3198 4.69777 29.3198 4.5028 29.1851 4.42482L22.0104 0.271449C21.3851 -0.090483 20.6149 -0.0904829 19.9896 0.271449L12.828 4.41725Z" fill="#3E7EFF"/>
</svg>
