<svg width="213" height="40" viewBox="0 0 213 40" fill="none" xmlns="http://www.w3.org/2000/svg">
<path fill-rule="evenodd" clip-rule="evenodd" d="M19.2655 29.1175V20.8773L26.3828 16.7572L30.4689 14.3918V19.7342C30.4689 19.8512 30.5952 19.9243 30.6962 19.8658L31.048 19.6622L33.1211 18.4621C33.3556 18.3264 33.5 18.0755 33.5 17.8041V12.6371V11.7598C33.5 11.2169 33.2111 10.7152 32.7422 10.4438L31.9845 10.0051L27.5261 7.42422C27.2916 7.2885 27.0028 7.2885 26.7683 7.42422L24.3435 8.82796C24.2424 8.88645 24.2424 9.03267 24.3435 9.09116L28.9534 11.7598L24.8672 14.1252L17.75 18.2453L10.6328 14.1252L6.69527 11.8458L6.54663 11.7598L11.1634 9.08716C11.2644 9.0287 11.2645 8.88258 11.1636 8.82403L8.74167 7.41911C8.50713 7.28306 8.21798 7.28293 7.98331 7.41877L3.51554 10.0051L2.75777 10.4438C2.28886 10.7152 2 11.2169 2 11.7598V12.6371V17.7976C2 18.0691 2.14443 18.3199 2.37889 18.4556L4.46321 19.6622L4.80376 19.8594C4.90479 19.9178 5.03109 19.8447 5.03109 19.7277V14.3918L5.17973 14.4778L9.11723 16.7572L16.2345 20.8773V29.1175L16.2345 33.8484L11.6179 31.1759C11.5169 31.1174 11.3906 31.1905 11.3906 31.3075V32.0757V34.115C11.3906 34.3864 11.535 34.6373 11.7695 34.773L16.2345 37.3577L16.9922 37.7964C17.4611 38.0679 18.0389 38.0679 18.5078 37.7964L19.2655 37.3577L23.7305 34.773C23.965 34.6373 24.1094 34.3864 24.1094 34.115V32.0757V31.3075C24.1094 31.1905 23.9831 31.1174 23.8821 31.1759L19.2655 33.8484L19.2655 29.1175ZM27.5194 29.0703C27.2849 29.206 27.1405 29.4569 27.1405 29.7283V32.0757V32.5358C27.1405 32.6528 27.2668 32.7259 27.3678 32.6674L32.7422 29.5562C33.2111 29.2848 33.5 28.7831 33.5 28.2402V22.0153C33.5 21.8983 33.3737 21.8252 33.2727 21.8837L32.5635 22.2942L30.8478 23.2874C30.6133 23.4232 30.4689 23.674 30.4689 23.9454V27.3629L27.5194 29.0703ZM8.35948 32.5358C8.35948 32.6528 8.23318 32.7259 8.13215 32.6674L2.75777 29.5562C2.28886 29.2848 2 28.7831 2 28.2402V22.0088C2 21.8918 2.1263 21.8187 2.22733 21.8772L2.94767 22.2942L4.6522 23.281C4.88666 23.4167 5.03109 23.6675 5.03109 23.939V27.3629L7.98057 29.0703C8.21503 29.206 8.35946 29.4568 8.35946 29.7283L8.35948 32.0757V32.5358ZM11.621 5.31294C11.52 5.37143 11.52 5.51765 11.621 5.57614L13.2195 6.50149L14.0459 6.97988C14.2803 7.1156 14.5692 7.1156 14.8037 6.97988L17.75 5.27426L20.7061 6.98555C20.9406 7.12128 21.2295 7.12128 21.4639 6.98555L22.3001 6.50149L23.8888 5.58181C23.9898 5.52333 23.9898 5.3771 23.8888 5.31861L18.5078 2.20359C18.0389 1.93214 17.4611 1.93214 16.9922 2.20359L11.621 5.31294Z" fill="#3477FF"/>
<path d="M41.5 26.96H47.7756C49.1089 26.96 50.1578 26.64 50.9044 26.0533C51.74 25.4133 52.2022 24.4889 52.2022 23.2089C52.2022 21.6978 51.3133 20.5244 49.9267 20.0978V20.0444C51.0467 19.6178 51.7044 18.8178 51.7044 17.5556C51.7044 16.5422 51.3311 15.7244 50.6022 15.12C49.9267 14.5689 48.9489 14.2489 47.6333 14.2489H41.5V26.96ZM44.6111 24.4356V21.4133H47.3844C48.3444 21.4133 49.0911 21.9289 49.0911 22.9422C49.0911 23.8489 48.4511 24.4356 47.42 24.4356H44.6111ZM44.6111 19.28V16.7378H47.1889C48.1133 16.7378 48.7 17.2 48.7 18C48.7 18.8356 48.0778 19.28 47.1711 19.28H44.6111Z" fill="#303233"/>
<path d="M53.2493 26.96H56.1471V17.8578H53.2493V26.96ZM53.2493 16.5956H56.1471V14.2489H53.2493V16.5956Z" fill="#303233"/>
<path d="M61.1464 27.0667C61.9286 27.0667 62.4797 26.9956 62.7286 26.9244V24.8089C62.6219 24.8089 62.3375 24.8267 62.0886 24.8267C61.4664 24.8267 61.0753 24.6489 61.0753 23.9378V19.6711H62.7286V17.8578H61.0753V14.9778H58.2486V17.8578H57.0397V19.6711H58.2486V24.56C58.2486 26.5156 59.4575 27.0667 61.1464 27.0667Z" fill="#303233"/>
<path d="M67.0768 26.96H70.2235V16.9156H73.9568V14.2489H63.379V16.9156H67.0768V26.96Z" fill="#303233"/>
<path d="M77.2597 25.1822C75.9975 25.1822 75.3397 24.08 75.3397 22.4267C75.3397 20.7733 75.9975 19.6533 77.2597 19.6533C78.5219 19.6533 79.1975 20.7733 79.1975 22.4267C79.1975 24.08 78.5219 25.1822 77.2597 25.1822ZM77.2775 27.2444C80.2108 27.2444 82.1308 25.1644 82.1308 22.4267C82.1308 19.6889 80.2108 17.6089 77.2775 17.6089C74.3619 17.6089 72.4064 19.6889 72.4064 22.4267C72.4064 25.1644 74.3619 27.2444 77.2775 27.2444Z" fill="#303233"/>
<path d="M83.1104 26.96H86.0082V22.8711C86.0082 20.8978 87.146 20.0267 88.9237 20.2756H88.9949V17.7867C88.8704 17.7333 88.6926 17.7156 88.426 17.7156C87.3237 17.7156 86.5771 18.1956 85.9371 19.28H85.8837V17.8578H83.1104V26.96Z" fill="#303233"/>
<path d="M89.916 26.96H92.8137V22.8711C92.8137 20.8978 93.9515 20.0267 95.7293 20.2756H95.8004V17.7867C95.676 17.7333 95.4982 17.7156 95.2315 17.7156C94.1293 17.7156 93.3826 18.1956 92.7426 19.28H92.6893V17.8578H89.916V26.96Z" fill="#303233"/>
<path d="M100.992 27.2267C102.148 27.2267 103.072 26.9244 103.837 26.3911C104.637 25.84 105.17 25.0578 105.366 24.24H102.539C102.29 24.8089 101.792 25.1467 101.028 25.1467C99.8368 25.1467 99.1612 24.3822 98.9835 23.1556H105.526C105.543 21.3067 105.01 19.7244 103.926 18.7289C103.143 18.0178 102.112 17.5911 100.815 17.5911C98.0412 17.5911 96.139 19.6711 96.139 22.3911C96.139 25.1467 97.9879 27.2267 100.992 27.2267ZM99.0012 21.4311C99.1968 20.3467 99.7657 19.6533 100.868 19.6533C101.81 19.6533 102.486 20.3467 102.592 21.4311H99.0012Z" fill="#303233"/>
<path d="M106.496 26.96H109.394V21.9289C109.394 20.8089 110.034 20.0089 110.994 20.0089C111.936 20.0089 112.416 20.6667 112.416 21.6267V26.96H115.314V21.04C115.314 19.0133 114.14 17.5911 112.149 17.5911C110.887 17.5911 110.016 18.1244 109.34 19.1022H109.287V17.8578H106.496V26.96Z" fill="#303233"/>
<path d="M120.07 27.0667C120.852 27.0667 121.403 26.9956 121.652 26.9244V24.8089C121.546 24.8089 121.261 24.8267 121.012 24.8267C120.39 24.8267 119.999 24.6489 119.999 23.9378V19.6711H121.652V17.8578H119.999V14.9778H117.172V17.8578H115.963V19.6711H117.172V24.56C117.172 26.5156 118.381 27.0667 120.07 27.0667Z" fill="#303233"/>
<path d="M126.021 26.96H127.621V20.9689H133.47V19.6178H127.621V15.6533H134.644V14.2489H126.021V26.96Z" fill="#303233"/>
<path d="M136.086 26.96H137.526V17.7689H136.086V26.96ZM136.086 16.0267H137.526V14.2489H136.086V16.0267Z" fill="#303233"/>
<path d="M139.542 26.96H140.982V14.2489H139.542V26.96Z" fill="#303233"/>
<path d="M146.924 27.2089C149.004 27.2089 150.444 26.0889 150.871 24.1156H149.467C149.147 25.36 148.258 26 146.924 26C145.076 26 144.062 24.5778 143.956 22.7111H151.067C151.067 19.6711 149.591 17.5378 146.836 17.5378C144.222 17.5378 142.48 19.7067 142.48 22.3733C142.48 25.04 144.116 27.2089 146.924 27.2089ZM146.836 18.6756C148.489 18.6756 149.431 19.7956 149.52 21.6267H143.991C144.204 19.9556 145.129 18.6756 146.836 18.6756Z" fill="#303233"/>
<path d="M160.14 27.2089C162.878 27.2089 164.816 25.8756 164.816 23.4933C164.816 20.6311 162.558 20.0267 160.087 19.5289C158.185 19.1556 156.762 18.7289 156.762 17.2889C156.762 15.9733 157.9 15.2444 159.625 15.2444C161.491 15.2444 162.665 16.1511 162.896 17.9644H164.407C164.087 15.6178 162.771 14 159.589 14C157.011 14 155.269 15.2622 155.269 17.36C155.269 19.76 157.189 20.4 159.429 20.8978C161.705 21.3956 163.233 21.8044 163.233 23.5467C163.233 25.1289 161.971 25.9289 160.211 25.9289C157.811 25.9289 156.496 24.8089 156.282 22.6578H154.718C154.86 25.2178 156.567 27.2089 160.14 27.2089Z" fill="#303233"/>
<path d="M167.606 30C168.726 30 169.437 29.6089 170.184 27.7067L174.113 17.7689H172.584L170.486 23.4933C170.202 24.2578 169.882 25.2889 169.882 25.2889H169.846C169.846 25.2889 169.509 24.2578 169.224 23.4933L167.055 17.7689H165.491L169.082 26.6933L168.726 27.6C168.371 28.4889 167.962 28.72 167.357 28.72C166.877 28.72 166.575 28.6311 166.38 28.5244H166.309V29.8044C166.7 29.9644 167.055 30 167.606 30Z" fill="#303233"/>
<path d="M178.529 27.2267C180.644 27.2267 182.155 26.2844 182.155 24.4356C182.155 22.32 180.609 21.9111 178.76 21.5378C177.177 21.2178 176.289 21.0222 176.289 20.0267C176.289 19.2978 176.822 18.7111 178.137 18.7111C179.506 18.7111 180.164 19.2444 180.306 20.4533H181.782C181.569 18.6578 180.449 17.5733 178.173 17.5733C176.04 17.5733 174.866 18.5689 174.866 20.0978C174.866 22.1067 176.484 22.48 178.297 22.8533C179.986 23.2089 180.697 23.4756 180.697 24.5067C180.697 25.36 180.075 26.0178 178.564 26.0178C177.195 26.0178 176.129 25.5733 175.933 23.9733H174.457C174.6 26.0356 176.004 27.2267 178.529 27.2267Z" fill="#303233"/>
<path d="M182.773 18.9422H184.107V25.2356C184.107 26.5333 184.96 27.0133 186.133 27.0133C186.56 27.0133 186.951 26.96 187.289 26.8889V25.6444H187.236C187.076 25.6978 186.756 25.7689 186.471 25.7689C185.885 25.7689 185.547 25.5556 185.547 24.9156V18.9422H187.325V17.7689H185.547V14.8711H184.107V17.7689H182.773V18.9422Z" fill="#303233"/>
<path d="M192.654 27.2089C194.734 27.2089 196.174 26.0889 196.6 24.1156H195.196C194.876 25.36 193.987 26 192.654 26C190.805 26 189.791 24.5778 189.685 22.7111H196.796C196.796 19.6711 195.32 17.5378 192.565 17.5378C189.951 17.5378 188.209 19.7067 188.209 22.3733C188.209 25.04 189.845 27.2089 192.654 27.2089ZM192.565 18.6756C194.218 18.6756 195.16 19.7956 195.249 21.6267H189.72C189.934 19.9556 190.858 18.6756 192.565 18.6756Z" fill="#303233"/>
<path d="M198.204 26.96H199.644V21.2356C199.644 19.7956 200.888 18.7644 202.008 18.7644C202.951 18.7644 203.591 19.44 203.591 20.5778V26.96H205.031V21.2356C205.031 19.7956 206.097 18.7644 207.288 18.7644C208.213 18.7644 208.977 19.44 208.977 20.5778V26.96H210.417V20.5067C210.417 18.6044 209.262 17.5556 207.626 17.5556C206.506 17.5556 205.404 18.1422 204.817 19.1911H204.782C204.391 18.1244 203.502 17.5556 202.382 17.5556C201.226 17.5556 200.248 18.1956 199.679 19.0844H199.644V17.7689H198.204V26.96Z" fill="#303233"/>
</svg>
