<svg width="14" height="14" viewBox="0 0 14 14" fill="none" xmlns="http://www.w3.org/2000/svg">
<path fill-rule="evenodd" clip-rule="evenodd" d="M7.00001 0.333008C3.31334 0.333008 0.333344 3.31301 0.333344 6.99967C0.333344 10.6863 3.31334 13.6663 7.00001 13.6663C10.6867 13.6663 13.6667 10.6863 13.6667 6.99967C13.6667 3.31301 10.6867 0.333008 7.00001 0.333008ZM8.72668 4.33301L7.00001 6.05967L5.27334 4.33301L4.33334 5.27301L6.06001 6.99967L4.33334 8.72634L5.27334 9.66634L7.00001 7.93967L8.72668 9.66634L9.66668 8.72634L7.94001 6.99967L9.66668 5.27301L8.72668 4.33301ZM1.66668 6.99967C1.66668 9.93967 4.06001 12.333 7.00001 12.333C9.94001 12.333 12.3333 9.93967 12.3333 6.99967C12.3333 4.05967 9.94001 1.66634 7.00001 1.66634C4.06001 1.66634 1.66668 4.05967 1.66668 6.99967Z" fill="#EB5757"/>
</svg>
