<svg width="46" height="46" viewBox="0 0 46 46" fill="none" xmlns="http://www.w3.org/2000/svg">
<path d="M16.7242 7.93709C16.4543 7.28941 16.7596 6.54089 17.425 6.31848C20.7299 5.21394 24.2988 5.11311 27.6763 6.04465C31.4633 7.08911 34.7916 9.37127 37.1306 12.5273C39.4697 15.6834 40.6848 19.5316 40.5824 23.4586C40.48 27.3857 39.0658 31.1653 36.5654 34.1951C34.065 37.225 30.6222 39.3305 26.786 40.1761C22.9497 41.0217 18.9408 40.5587 15.3983 38.8609C11.8558 37.1631 8.98368 34.3282 7.23974 30.8082C5.68434 27.6688 5.10624 24.1455 5.56373 20.6911C5.65585 19.9955 6.33287 19.5539 7.01998 19.6959C7.7071 19.838 8.14327 20.5101 8.05964 21.2067C7.71188 24.1036 8.21313 27.0494 9.51651 29.6802C11.0085 32.6917 13.4658 35.117 16.4965 36.5696C19.5272 38.0221 22.957 38.4182 26.2391 37.6948C29.5211 36.9713 32.4665 35.17 34.6057 32.5779C36.7449 29.9857 37.9547 26.7521 38.0424 23.3924C38.13 20.0327 37.0904 16.7404 35.0893 14.0402C33.0881 11.3401 30.2406 9.38765 27.0008 8.49407C24.1705 7.71347 21.1831 7.7802 18.4048 8.67125C17.7366 8.88552 16.994 8.58477 16.7242 7.93709Z" fill="url(#paint0_angular)"/>
<defs>
<radialGradient id="paint0_angular" cx="0" cy="0" r="1" gradientUnits="userSpaceOnUse" gradientTransform="translate(23 23) rotate(-176.532) scale(21.1448)">
<stop offset="0.0215903" stop-color="#EEF3FE"/>
<stop offset="0.166667" stop-color="#3E7EFF"/>
<stop offset="0.764875" stop-color="#31529E"/>
</radialGradient>
</defs>
</svg>
