<svg xmlns="http://www.w3.org/2000/svg" width="716" height="203" viewBox="0 0 716 203">
    <defs>
        <filter id="g1ql4lwcga" width="129.8%" height="267.3%" x="-14.9%" y="-83.6%" filterUnits="objectBoundingBox">
            <feGaussianBlur in="shadowOffsetOuter1" result="shadowBlurOuter1" stdDeviation="23.5"/>
            <feColorMatrix in="shadowBlurOuter1" result="shadowMatrixOuter1" values="0 0 0 0 1 0 0 0 0 1 0 0 0 0 1 0 0 0 0.5 0"/>
            <feMerge>
                <feMergeNode in="shadowMatrixOuter1"/>
                <feMergeNode in="SourceGraphic"/>
            </feMerge>
        </filter>
    </defs>
    <g fill="none" fill-rule="evenodd">
        <g fill="#FFF" fill-rule="nonzero">
            <g filter="url(#g1ql4lwcga)" transform="translate(-597 -142) translate(643 185)">
                <g>
                    <path d="M63.138 83.336L62.404 84.311 45.094 107.25 46.84 107.25 65.203 82.915 64.201 81.656 63.031 83.201zM126.042 1.041L124.132 3.552 84.094 56.167 84.993 57.281 128.578 0 95.44 0 94.637 1.041 122.902 1.041z" transform="translate(504.375)"/>
                    <path d="M89.247 2.438L88.443 3.481 116.791 3.481 119.941 3.481 118.021 5.999 81.656 53.728 82.555 54.844 122.484 2.438zM57.514 85.238L56.758 86.21 39 109.078 40.788 109.078 61.3 82.67 61.186 82.533 63.375 79.723 62.461 78.609 57.404 85.1zM37.949 64.05L0 112.125 35.468 112.125 55.692 85.842 55.579 85.705 61.547 77.981 44.198 56.672 38.198 64.352z" transform="translate(504.375)"/>
                    <path d="M83.594 4.875L63.375 31.035 80.678 52.406 117 4.875z" transform="translate(504.375)"/>
                    <path d="M42.988 7.313L50.897 1.828 3.047 1.992 89.5 109.078 125.531 109.078z" transform="translate(504.375)"/>
                </g>
                <path d="M271.668 71.488c0-12.555 7.772-17.856 17.825-16.561h.533V39.013c-1.178-.498-2.473-.678-3.748-.52-5.497.26-10.724 3.104-15.01 9.96h-.402V39.4h-18.34v58.1h19.165l-.023-26.012zM416.694 97.378v-32.22c0-7.271 4.214-12.337 10.406-12.337 6.062 0 9.222 4.283 9.222 10.388V97.5h18.704V59.581c0-12.993-7.64-22.081-20.546-22.081-8.169 0-13.83 3.377-18.18 9.61h-.394V39.19h-18.068v58.189h18.856zM313.856 97.489V71.482c0-12.555 7.772-17.855 17.824-16.56h.533V39.012c-1.177-.498-2.473-.678-3.748-.52-5.496.26-10.723 3.104-15.01 9.96h-.401V39.4h-18.34v58.1l19.142-.011zM363.247 98.438c7.404 0 13.246-1.96 18.183-5.354 4.796-3.283 8.254-8.194 9.741-13.831h-18.055c-1.555 3.65-4.67 5.872-9.608 5.872-7.658 0-11.946-4.963-13.112-12.788h41.814c.128-11.879-3.377-22.06-10.263-28.468-4.932-4.566-11.557-7.306-19.866-7.306-17.66 0-29.868 13.312-29.868 30.8 0 17.762 11.819 31.075 31.034 31.075zm-.905-48.686c5.97 0 10.386 4.572 11.035 11.488h-22.98c1.293-7.061 4.93-11.488 11.945-11.488zM466.585 81.609c0 12.404 7.698 15.891 18.653 15.891 4.953 0 11.345-.387 12.913-.906V83.156c-.653 0-5.35.133-6.917.133-4.044 0-6.52-1.166-6.52-5.686v-27.13h10.564V38.975h-10.564v-18.35h-18.129v18.35h-7.81v11.498h7.81V81.61zM156.048 96.563L176.11 96.563 176.11 32.068 197.213 32.068 197.213 15 135.338 15 135.338 32.068 156.048 32.068zM60.43 91.67c5.33-4.034 8.346-10.015 8.346-18.21 0-9.631-5.725-17.175-14.572-19.907v-.39c7.289-2.731 11.45-7.933 11.45-16 0-6.502-2.342-11.706-7.027-15.612-4.318-3.533-10.544-5.613-19.001-5.613H.338V97.5H40.4c8.597 0 15.235-2.08 20.03-5.83zM20.246 31.937h16.52c5.853 0 9.626 2.988 9.626 8.062 0 5.336-3.895 8.195-9.754 8.195H20.246V31.938zm0 49.305V61.86h17.805c6.12 0 10.928 3.249 10.928 9.753 0 5.858-4.034 9.63-10.666 9.63H20.246z"/>
                <path d="M184.088 67.503c0 17.62 12.403 30.934 31.004 30.934s30.871-13.315 30.871-30.934c0-17.62-12.242-30.94-30.87-30.94-18.63 0-31.005 13.315-31.005 30.94zm30.872-17.865c8.01 0 12.275 7.313 12.275 17.865 0 10.551-4.265 17.62-12.275 17.753-8.138 0-12.27-7.05-12.27-17.753s4.265-17.888 12.247-17.888l.023.023zM75.338 39.375H95.026V97.5H75.338zM108.461 81.609c0 12.404 7.81 15.891 18.656 15.891 4.954 0 11.347-.387 12.909-.906V83.156c-.647 0-5.345.133-6.912.133-4.045 0-6.522-1.166-6.522-5.686v-27.13h10.566V38.975h-10.56v-18.35H108.46v18.35h-7.81v11.498h7.81V81.61zM75.338 15H95.026V30H75.338z"/>
            </g>
        </g>
    </g>
</svg>
